<svg width="438" height="265" viewBox="0 0 438 265" fill="none" xmlns="http://www.w3.org/2000/svg">
<g clip-path="url(#clip0_23_20541)">
<path d="M202.806 69.181L202.311 68.5895C202.446 68.4734 216.184 57.0016 236.038 51.1832C254.38 45.8056 281.847 44.2888 308.519 67.5626L308.013 68.1468C281.608 45.1053 254.435 46.6039 236.279 51.9179C216.569 57.6856 202.942 69.0758 202.806 69.181Z" fill="#DADADA"/>
<path d="M414.672 217.848C411.805 187.223 399.974 163.976 369.313 146.927C360.271 141.9 348.949 139.442 343.529 130.611C338.147 121.843 340.147 110.654 339.08 100.405C336.344 74.1286 311.313 53.8121 285.124 51.0308C258.934 48.2494 232.882 60.1476 212.99 77.4596C198.064 90.45 184.989 107.033 166.183 113.116C135.17 123.147 101.425 100.779 69.6072 107.786C52.4821 111.563 38.115 123.59 27.6237 137.685C10.0663 161.271 5.68967 191.089 11.0592 220.025C13.9963 235.857 21.1871 251.899 31.4813 264.222L400.494 263.449C411.275 252.625 415.9 230.978 414.672 217.848Z" fill="#F6F5F5"/>
<path d="M150.281 99.8082C166.027 99.8082 178.792 87.0024 178.792 71.2058C178.792 55.4091 166.027 42.6033 150.281 42.6033C134.534 42.6033 121.769 55.4091 121.769 71.2058C121.769 87.0024 134.534 99.8082 150.281 99.8082Z" fill="#F6F5F5"/>
<path d="M209.239 48.6541C210.872 42.3152 207.074 35.8485 200.755 34.2104C194.436 32.5722 187.99 36.3829 186.357 42.7217C184.724 49.0606 188.523 55.5273 194.841 57.1654C201.16 58.8036 207.606 54.9929 209.239 48.6541Z" fill="#F6F5F5"/>
<path d="M390.138 131.127C391.637 124.755 387.703 118.37 381.352 116.866C375 115.362 368.635 119.308 367.136 125.681C365.637 132.053 369.571 138.437 375.923 139.941C382.274 141.445 388.639 137.499 390.138 131.127Z" fill="#F6F5F5"/>
<path d="M412.899 263.888L412.219 263.525C426.082 237.314 427.548 209.14 416.247 186.225C404.363 162.133 380.11 145.926 347.954 140.585L348.081 139.822C380.488 145.204 404.942 161.561 416.936 185.882C428.35 209.022 426.879 237.454 412.899 263.888Z" fill="#DADADA"/>
<path d="M33.6334 265C16.9352 246.962 5.91934 225.238 1.77235 202.176C-2.08889 180.704 0.406901 159.397 8.79673 142.181C21.7604 115.587 46.8485 101.882 77.619 104.578L77.5521 105.347C47.1089 102.68 22.3047 116.229 9.49121 142.522C1.17191 159.589 -1.29856 180.728 2.53194 202.031C6.65361 224.946 17.6025 246.536 34.1995 264.465L33.6334 265Z" fill="#DADADA"/>
<path d="M169.878 197.156H52.2198V263.598H169.878V197.156Z" fill="#FBC343"/>
<path opacity="0.5" d="M94.377 197.156H52.2198V263.598H94.377V197.156Z" fill="#B25834"/>
<path opacity="0.3" d="M116.689 197.156V213.341H127.663V197.156H116.689Z" fill="white"/>
<path d="M340.993 124.771H146.638V263.598H340.993V124.771Z" fill="#102048"/>
<path d="M359.918 75.6907H323.962V42.7684C323.948 39.5787 325.197 36.5138 327.435 34.2479C329.673 31.982 332.716 30.7008 335.896 30.6861C339.076 30.6715 342.131 31.9245 344.39 34.1696C346.648 36.4147 347.925 39.468 347.94 42.6578V42.7684L347.931 63.6655C347.931 63.7671 347.931 63.876 347.94 63.9776V64.6108L347.976 64.5926C348.206 67.6117 349.564 70.4322 351.779 72.4899C353.993 74.5477 356.9 75.6908 359.918 75.6907Z" fill="#FFEFCB"/>
<path d="M371.898 56.3975V63.6728C371.9 66.7816 370.701 69.7703 368.553 72.011C366.405 74.2516 363.474 75.5698 360.378 75.6887C357.281 75.8075 354.259 74.7177 351.946 72.6483C349.634 70.5788 348.211 67.6907 347.976 64.5908L371.898 56.3975Z" fill="#FFDD8E"/>
<path d="M335.951 30.7397C335.694 30.7397 335.448 30.7487 335.201 30.7669C335.036 30.7669 334.881 30.785 334.727 30.8032C334.573 30.8213 334.387 30.8413 334.213 30.8685C334.114 30.8685 334.012 30.8957 333.913 30.9138C333.785 30.932 333.656 30.9592 333.537 30.9882C333.356 31.0245 333.175 31.0608 332.994 31.1061C332.737 31.1715 332.482 31.244 332.226 31.3366C332.097 31.3728 331.971 31.4182 331.851 31.4636C331.732 31.5089 331.603 31.5561 331.49 31.6014C331.318 31.6659 331.15 31.7398 330.987 31.8228C330.837 31.8848 330.69 31.955 330.547 32.0332C330.511 32.0514 330.464 32.0695 330.419 32.0967C330.29 32.1621 330.162 32.2346 330.035 32.309C329.532 32.5907 329.051 32.9129 328.599 33.2724C328.471 33.3722 328.334 33.4829 328.214 33.5827C328.095 33.6824 327.941 33.8221 327.804 33.9455C327.666 34.0689 327.538 34.2013 327.411 34.3301C327.051 34.6966 326.715 35.0856 326.404 35.4949C326.266 35.6764 326.14 35.8578 326.011 36.0392C325.608 36.6539 325.256 37.3008 324.959 37.9733C324.887 38.1384 324.823 38.3143 324.749 38.4885C324.555 39.0157 324.393 39.5544 324.264 40.1014C324.228 40.2956 324.192 40.4788 324.154 40.6621C324.091 41.0376 324.037 41.4241 324.009 41.8087V210.509H163.734V49.4904C163.734 47.028 164.218 44.5896 165.157 42.3145C166.096 40.0395 167.473 37.9723 169.209 36.2311C170.944 34.4899 173.005 33.1087 175.273 32.1665C177.54 31.2243 179.971 30.7394 182.426 30.7397H335.951Z" fill="#FFEEA8"/>
<path d="M304.302 47.9319H182.681V54.3527H304.302V47.9319Z" fill="#FFDD8E"/>
<path d="M294.877 66.7371H182.681V73.1579H294.877V66.7371Z" fill="#FFDD8E"/>
<path d="M288.963 85.5423H182.681V91.9631H288.963V85.5423Z" fill="#FFDD8E"/>
<path d="M304.302 104.349H182.681V110.77H304.302V104.349Z" fill="#FFDD8E"/>
<path d="M295.615 123.383H229.679V129.804H295.615V123.383Z" fill="#FFDD8E"/>
<path d="M242.951 159.441C242.227 159.441 241.553 159.192 241.093 158.557C240.529 157.773 240.569 156.701 240.594 155.992L241.216 139.396L242.121 139.431L241.5 156.024C241.471 156.797 241.475 157.532 241.824 158.02C242.602 159.096 244.472 158.165 244.839 157.967C246.68 156.977 248.002 155.112 249.28 153.308C250.702 151.312 252.174 149.231 254.395 148.257C255.715 147.678 256.685 148.528 257.47 149.206C257.913 149.591 258.33 149.954 258.774 150.086C259.936 150.429 261.094 150.128 262.318 149.807C263.403 149.524 264.523 149.226 265.675 149.406C266.727 149.567 267.577 149.988 268.402 150.394C269.616 150.997 270.668 151.517 272.186 151.147C274.28 150.641 276.226 149.446 278.107 148.29C278.649 147.954 279.192 147.619 279.747 147.299C281.861 146.067 285.039 144.512 288.202 145.24L287.998 146.134C285.146 145.479 282.185 146.938 280.205 148.092C279.662 148.41 279.12 148.74 278.577 149.072C276.635 150.266 274.625 151.499 272.392 152.04C270.549 152.484 269.245 151.842 267.986 151.218C267.227 150.841 266.442 150.452 265.528 150.311C264.561 150.164 263.581 150.42 262.541 150.692C261.248 151.031 259.916 151.381 258.504 150.964C257.873 150.783 257.359 150.329 256.862 149.897C256.046 149.188 255.509 148.771 254.757 149.095C252.767 149.968 251.433 151.848 250.022 153.84C248.682 155.727 247.297 157.681 245.267 158.773C244.559 159.177 243.765 159.406 242.951 159.441Z" fill="#102048"/>
<path opacity="0.3" d="M324.009 130.58V210.509H163.734V123.623L213.8 165.415C216.562 167.726 220.183 168.606 223.747 168.102C224.792 167.954 225.847 167.893 226.901 167.921L261.029 168.884C262.204 168.921 263.374 169.065 264.523 169.316C268.06 170.087 271.757 169.379 274.681 167.215L324.009 130.58Z" fill="#E49B31"/>
<path d="M219.716 182.324L218.382 183.81L158.065 250.905L146.642 263.601V124.769L219.716 182.324Z" fill="#FFE164"/>
<path d="M340.993 124.771L267.917 182.324L340.993 263.598V124.771Z" fill="#FFE164"/>
<path d="M218.378 183.81L158.065 250.905L146.644 253.428V228.754C176.792 207.077 210.617 181.945 218.345 181.401L218.378 183.81Z" fill="#FBC343"/>
<path d="M269.256 183.81L329.572 250.905L340.995 253.428V228.754C310.845 207.077 277.02 181.945 269.294 181.401L269.256 183.81Z" fill="#FBC343"/>
<path d="M340.997 263.598H146.638L146.675 245.335L213.647 184.385C217.163 181.186 221.74 179.414 226.487 179.416H260.629C265.303 179.417 269.815 181.135 273.311 184.247L341.178 244.7L340.997 263.598Z" fill="#FFE164"/>
<path opacity="0.4" d="M351.679 253.791C364.714 240.715 364.714 219.514 351.679 206.439C338.645 193.363 317.512 193.363 304.477 206.439C291.443 219.515 291.443 240.715 304.477 253.791C317.512 266.866 338.645 266.866 351.679 253.791Z" fill="#32B934" fill-opacity="0.5"/>
<path d="M361.737 253.792C374.771 240.716 374.771 219.516 361.737 206.44C348.702 193.364 327.57 193.364 314.535 206.44C301.501 219.516 301.501 240.716 314.535 253.792C327.57 266.868 348.702 266.868 361.737 253.792Z" fill="#32B934"/>
<path d="M337.421 248.258C336.632 248.258 335.851 248.091 335.129 247.769C334.408 247.448 333.762 246.977 333.233 246.389L321.425 233.31C321.183 233.042 320.996 232.729 320.875 232.388C320.754 232.048 320.7 231.687 320.718 231.326C320.736 230.965 320.824 230.611 320.979 230.284C321.133 229.957 321.35 229.664 321.617 229.422C321.884 229.179 322.196 228.991 322.535 228.87C322.874 228.748 323.234 228.695 323.594 228.713C323.954 228.73 324.307 228.819 324.633 228.974C324.958 229.129 325.25 229.346 325.492 229.614L337.3 242.695C337.319 242.718 337.344 242.735 337.372 242.745C337.4 242.754 337.431 242.756 337.459 242.75C337.489 242.747 337.517 242.736 337.541 242.717C337.564 242.699 337.582 242.674 337.591 242.646L350.302 213.617C350.447 213.286 350.655 212.987 350.915 212.737C351.175 212.487 351.482 212.291 351.818 212.159C352.153 212.028 352.512 211.965 352.872 211.972C353.232 211.98 353.587 212.059 353.917 212.204C354.247 212.349 354.545 212.558 354.795 212.819C355.044 213.08 355.24 213.388 355.37 213.725C355.501 214.061 355.565 214.421 355.557 214.782C355.549 215.143 355.471 215.5 355.326 215.831L342.616 244.86C342.17 245.869 341.443 246.728 340.521 247.331C339.599 247.934 338.522 248.256 337.421 248.258V248.258Z" fill="white"/>
<path d="M106.478 178.654L107.543 197.154H135.892L123.089 186.604L122.328 178.654L117.298 173.763L106.478 178.654Z" fill="#102048"/>
<path d="M72.49 170.399L67.918 186.911L91.2373 197.154L84.3775 181.559L86.0541 174.526L80.2631 166.881L72.49 170.399Z" fill="#102048"/>
<path d="M81.4821 88.447C81.4821 88.447 78.7385 99.9188 79.6627 125.138C79.6627 125.138 71.5858 153.422 72.4991 170.393L86.0631 174.523C93.1707 158.682 99.0141 143.442 102.123 129.506C103.671 124.578 103.642 119.287 102.038 114.377L95.5037 94.4106L81.4821 88.447Z" fill="#1F3C88"/>
<path d="M124.477 125.667L122.328 178.659H106.48C102.347 161.404 100.812 146.672 100.271 136.8C99.8225 128.48 100.079 123.619 100.079 123.619C89.8918 111.556 83.8386 102.84 80.3174 96.3918C75.0871 86.8232 75.4072 82.2186 75.9932 78.9746C76.7799 74.6529 79.5777 69.0576 81.4712 65.6177C82.531 63.7091 83.3087 62.4608 83.3087 62.4608L109.827 71.0298L106.664 82.5016L106.61 82.683C106.376 83.5383 106.312 84.4317 106.424 85.3117C106.535 86.1917 106.819 87.0408 107.259 87.8102L121.169 112.111C123.522 116.227 124.669 120.926 124.477 125.667V125.667Z" fill="#294EAF"/>
<path d="M116.231 178.999H116.21C116.119 178.993 116.035 178.952 115.975 178.884C115.915 178.816 115.884 178.726 115.89 178.636C115.922 178.104 119.192 125.419 115.311 117.033C114.629 115.562 113.473 113.68 112.133 111.505C106.527 102.395 97.1567 87.1516 99.1244 65.1805C99.1367 65.0929 99.182 65.0134 99.2511 64.9584C99.3201 64.9034 99.4076 64.8772 99.4955 64.8851C99.5833 64.893 99.6647 64.9345 99.7228 65.001C99.781 65.0674 99.8115 65.1538 99.808 65.2422C97.8602 86.9847 107.162 102.107 112.717 111.144C114.068 113.337 115.233 115.235 115.933 116.745C119.886 125.286 116.711 176.504 116.573 178.679C116.567 178.766 116.529 178.847 116.465 178.907C116.402 178.966 116.318 178.999 116.231 178.999V178.999Z" fill="#1F3C88"/>
<path opacity="0.6" d="M109.827 71.0207L106.664 82.5016C94.4655 77.4669 85.6851 69.8015 81.4712 65.6141C82.531 63.7054 83.3087 62.4572 83.3087 62.4572L109.827 71.0207Z" fill="#1F3C88"/>
<path d="M114.309 187.346L114.039 182.751L122.778 182.591C122.824 182.588 122.87 182.594 122.913 182.61C122.956 182.625 122.995 182.65 123.028 182.682C123.061 182.713 123.087 182.752 123.104 182.794C123.121 182.837 123.129 182.883 123.127 182.928C123.128 182.974 123.12 183.019 123.104 183.061C123.087 183.103 123.063 183.141 123.032 183.174C123 183.206 122.963 183.232 122.922 183.25C122.88 183.268 122.836 183.278 122.791 183.279L114.767 183.426L114.947 186.628L123.068 186.265C123.114 186.26 123.161 186.265 123.206 186.279C123.25 186.293 123.292 186.316 123.327 186.347C123.363 186.378 123.391 186.415 123.412 186.457C123.432 186.5 123.444 186.546 123.446 186.592C123.448 186.639 123.44 186.686 123.424 186.73C123.407 186.774 123.382 186.814 123.349 186.848C123.317 186.881 123.278 186.908 123.235 186.926C123.192 186.944 123.145 186.953 123.098 186.953L114.309 187.346Z" fill="white"/>
<path d="M84.3775 181.903C84.3425 181.903 84.3078 181.898 84.2744 181.887L76.7509 179.478L78.6282 175.085L85.2565 177.489C85.3009 177.503 85.342 177.526 85.3774 177.556C85.4128 177.586 85.4417 177.623 85.4624 177.665C85.4831 177.707 85.4952 177.752 85.4979 177.799C85.5005 177.845 85.4938 177.892 85.478 177.936C85.4622 177.979 85.4377 178.02 85.406 178.054C85.3743 178.088 85.336 178.115 85.2935 178.134C85.251 178.153 85.2051 178.163 85.1586 178.163C85.1122 178.164 85.0661 178.155 85.0232 178.137L79.0025 175.96L77.6733 179.053L84.477 181.23C84.5562 181.254 84.624 181.306 84.6681 181.376C84.7121 181.446 84.7293 181.53 84.7165 181.612C84.7037 181.694 84.6618 181.768 84.5985 181.821C84.5351 181.875 84.4547 181.903 84.3721 181.902L84.3775 181.903Z" fill="white"/>
<path d="M119.201 20.2548L118.705 22.1072L116.731 29.6021L115.396 34.6295L103.508 30.3459L109.241 18.5766L112.039 14.5216L119.201 20.2548Z" fill="#F9B384"/>
<path d="M118.707 22.1072L116.738 29.6021C113.236 25.7921 113.949 21.0241 113.949 21.0241L118.707 22.1072Z" fill="#102048"/>
<path d="M128.119 9.70831C128.119 9.70831 127.358 26.6793 118.823 25.226C110.289 23.7728 110.44 9.17309 110.44 9.17309L121.567 5.57534L128.119 9.70831Z" fill="#F9B384"/>
<path d="M116.269 12.2683C116.269 12.2683 121.165 7.20458 128.119 9.70831C128.119 9.70831 131.193 11.0074 132.387 8.48548C132.387 8.48548 122.556 -4.58836 114.844 1.71996C114.844 1.71996 101.014 4.75709 109.238 18.5748L116.269 12.2683Z" fill="#102048"/>
<path d="M116.893 15.6322C118.325 15.4031 119.274 13.8826 119.012 12.2361C118.751 10.5895 117.377 9.44046 115.945 9.66956C114.513 9.89866 113.564 11.4192 113.826 13.0657C114.088 14.7123 115.461 15.8613 116.893 15.6322Z" fill="#F9B384"/>
<path d="M128.398 18.5088C128.533 17.6749 127.968 16.8896 127.136 16.7547C126.305 16.6198 125.522 17.1864 125.388 18.0202C125.253 18.8541 125.818 19.6394 126.649 19.7743C127.481 19.9092 128.264 19.3426 128.398 18.5088Z" fill="#F9B384"/>
<path opacity="0.4" d="M120.993 19.3404C122.446 19.3404 123.623 18.1593 123.623 16.7024C123.623 15.2455 122.446 14.0644 120.993 14.0644C119.541 14.0644 118.364 15.2455 118.364 16.7024C118.364 18.1593 119.541 19.3404 120.993 19.3404Z" fill="#EB5D60"/>
<path d="M170.336 44.1509C170.336 44.1509 171.909 46.3172 168.708 48.4817C168.708 48.4817 171.26 50.2343 162.463 53.1226C161.485 53.4438 160.369 53.774 159.088 54.1223L155.549 41.2626C155.549 41.2626 171.251 35.9412 171.645 37.6467C172.039 39.3521 168.838 41.6563 168.838 41.6563C168.838 41.6563 174.461 40.2701 170.336 44.1509Z" fill="#F9B384"/>
<path d="M155.551 41.259L136.959 43.6502C136.959 43.6502 110.211 24.5384 104.725 26.3726C99.2402 28.2069 80.7207 58.0213 80.7207 58.0213C80.7207 58.0213 75.6839 59.6269 75.919 61.6916C76.1541 63.7563 108.612 80.6492 112.954 76.3693C115.687 73.6768 118.823 52.2119 118.823 52.2119L130.653 57.1486C134.161 58.6115 138.035 58.9425 141.739 58.0956L159.085 54.126L155.551 41.259Z" fill="#1F3C88"/>
<g opacity="0.8">
<path opacity="0.8" d="M154.375 52.7471C153.735 50.2433 153.109 47.7995 152.545 45.45C152.388 44.795 152.243 44.1274 152.098 43.4543C151.975 42.8864 151.849 42.3167 151.715 41.7488L151.031 41.8377C151.169 42.4237 151.301 43.0134 151.427 43.5994C151.574 44.2761 151.72 44.951 151.88 45.6096C152.447 47.9682 153.071 50.4084 153.71 52.9158C153.905 53.6814 154.1 54.4489 154.296 55.2181L154.965 55.0657C154.767 54.2941 154.571 53.5212 154.375 52.7471Z" fill="white"/>
<path opacity="0.8" d="M122.547 34.1088L121.7 34.2902C116.548 35.3661 111.03 36.237 105.646 35.3226C103.031 34.8934 100.523 33.9659 98.2563 32.5902C98.1116 32.7717 97.9669 32.9531 97.8204 33.1345C100.18 34.5798 102.796 35.5538 105.525 36.0029C111.026 36.9355 116.615 36.0555 121.832 34.9651C122.35 34.8563 122.867 34.742 123.384 34.6295L122.547 34.1088Z" fill="white"/>
<path opacity="0.8" d="M115.425 67.1526C113.877 67.2814 112.276 67.4157 110.723 67.2687C106.156 66.8424 102.105 63.9921 99.4553 61.8857C98.5149 61.1382 97.5962 60.3635 96.6756 59.587C94.3354 57.613 91.9155 55.5738 89.1919 54.0516C87.7043 53.215 86.112 52.5816 84.4571 52.1683C84.3215 52.377 84.1949 52.5711 84.0665 52.7725C85.7443 53.1701 87.3578 53.8035 88.8591 54.6539C91.5249 56.1416 93.923 58.1609 96.2343 60.1131C97.1585 60.8933 98.0845 61.6734 99.0285 62.4246C101.741 64.5854 105.901 67.5046 110.659 67.9545C112.274 68.1051 113.915 67.969 115.483 67.8384L115.953 67.8057C116.005 67.5735 116.058 67.3413 116.112 67.1054C115.881 67.1236 115.653 67.1345 115.425 67.1526Z" fill="white"/>
</g>
<path d="M118.823 52.2119L114.007 50.0928C114.007 50.0928 115.237 57.7691 117.559 58.8649L118.823 52.2119Z" fill="#1F3C88"/>
<path d="M162.454 53.1227C161.476 53.4438 160.36 53.774 159.079 54.1223L155.549 41.2626L162.454 53.1227Z" fill="#E28B6D"/>
<path d="M437.998 263.204H3.99146V264.122H437.998V263.204Z" fill="#102048"/>
</g>
<defs>
<clipPath id="clip0_23_20541">
<rect width="438" height="265" fill="white"/>
</clipPath>
</defs>
</svg>
