<svg width="96" height="20" viewBox="0 0 96 20" fill="none" xmlns="http://www.w3.org/2000/svg">
<path d="M0.799988 19.2H5.39999V8.59998C5.39999 6.35998 6.79999 4.99998 8.39999 4.99998C9.99999 4.99998 11.4 6.35998 11.4 8.59998V19.2H16V8.59998C16 6.35998 17.4 4.99998 19 4.99998C20.6 4.99998 22 6.35998 22 8.59998V19.2H26.6V8.19998C26.6 3.19998 24 0.599976 20 0.599976C18.4 0.599976 17.04 1.19998 16.08 1.79998C15.52 2.15998 15.04 2.55998 14.6 2.99998C14.32 2.55998 13.92 2.15998 13.44 1.79998C12.6 1.19998 11.28 0.599976 9.39999 0.599976C8.07999 0.599976 6.99999 1.11998 6.23999 1.59998C5.79999 1.87998 5.35999 2.23998 4.99999 2.59998L4.19999 0.799977H0.799988V19.2Z" fill="#FFD93D"/>
<path d="M41.32 13.6C41.12 13.88 40.84 14.12 40.52 14.32C39.92 14.68 39.16 15 37.92 15C35.52 15 34.16 13.6 33.72 11.8H46.52L46.6 11.2C46.64 10.84 46.72 10.44 46.72 9.99998C46.72 4.39998 42.72 0.599976 37.92 0.599976C32.96 0.599976 28.72 4.79998 28.72 9.99998C28.72 15.2 32.96 19.4 37.92 19.4C42.08 19.4 45.16 16.36 46.12 13.6H41.32ZM33.52 8.59998C33.96 6.55998 35.52 4.99998 37.92 4.99998C40.32 4.99998 41.88 6.55998 42.32 8.59998H33.52Z" fill="#FFD93D"/>
<path d="M49.0306 19.2H53.6306V8.59998C53.6306 6.35998 55.0306 4.99998 56.6306 4.99998C58.2306 4.99998 59.6306 6.35998 59.6306 8.59998V19.2H64.2306V8.59998C64.2306 6.35998 65.6306 4.99998 67.2306 4.99998C68.8306 4.99998 70.2306 6.35998 70.2306 8.59998V19.2H74.8306V8.19998C74.8306 3.19998 72.2306 0.599976 68.2306 0.599976C66.6306 0.599976 65.2706 1.19998 64.3106 1.79998C63.7506 2.15998 63.2706 2.55998 62.8306 2.99998C62.5506 2.55998 62.1506 2.15998 61.6706 1.79998C60.8306 1.19998 59.5106 0.599976 57.6306 0.599976C56.3106 0.599976 55.2306 1.11998 54.4706 1.59998C54.0306 1.87998 53.5906 2.23998 53.2306 2.59998L52.4306 0.799977H49.0306V19.2Z" fill="#FFD93D"/>
<path d="M86.1506 4.99998C88.7506 4.99998 90.7506 6.95998 90.7506 9.99998C90.7506 13.04 88.7506 15 86.1506 15C83.5506 15 81.5506 13.04 81.5506 9.99998C81.5506 6.95998 83.5506 4.99998 86.1506 4.99998ZM86.1506 0.599976C81.1906 0.599976 76.9506 4.79998 76.9506 9.99998C76.9506 15.2 81.1906 19.4 86.1506 19.4C91.1106 19.4 95.3506 15.2 95.3506 9.99998C95.3506 4.79998 91.1106 0.599976 86.1506 0.599976Z" fill="#FFD93D"/>
</svg>
